<mxfile host="app.diagrams.net" modified="2024-06-03T18:33:28.788Z" agent="Mozilla/5.0 (Windows NT 10.0; Win64; x64) AppleWebKit/537.36 (KHTML, like Gecko) Chrome/125.0.0.0 Safari/537.36" etag="Tumw8K4EuOoOwiEQe3pw" version="24.4.13" type="github">
  <diagram id="R2lEEEUBdFMjLlhIrx00" name="Page-1">
    <mxGraphModel dx="719" dy="365" grid="1" gridSize="10" guides="1" tooltips="1" connect="1" arrows="1" fold="1" page="1" pageScale="1" pageWidth="850" pageHeight="1100" math="0" shadow="0" extFonts="Permanent Marker^https://fonts.googleapis.com/css?family=Permanent+Marker">
      <root>
        <mxCell id="0" />
        <mxCell id="1" parent="0" />
        <mxCell id="NPN9Zi6-Gm8Cj7-BHe_N-7" value="" style="group" vertex="1" connectable="0" parent="1">
          <mxGeometry x="120" y="250" width="250" height="80" as="geometry" />
        </mxCell>
        <mxCell id="NPN9Zi6-Gm8Cj7-BHe_N-2" value="К1 : Клиент" style="shape=table;startSize=30;container=1;collapsible=1;childLayout=tableLayout;fixedRows=1;rowLines=0;fontStyle=5;align=center;resizeLast=1;" vertex="1" parent="NPN9Zi6-Gm8Cj7-BHe_N-7">
          <mxGeometry width="250" height="80" as="geometry" />
        </mxCell>
        <mxCell id="NPN9Zi6-Gm8Cj7-BHe_N-3" value="" style="shape=partialRectangle;collapsible=0;dropTarget=0;pointerEvents=0;fillColor=none;points=[[0,0.5],[1,0.5]];portConstraint=eastwest;top=0;left=0;right=0;bottom=0;" vertex="1" parent="NPN9Zi6-Gm8Cj7-BHe_N-2">
          <mxGeometry y="30" width="250" height="50" as="geometry" />
        </mxCell>
        <mxCell id="NPN9Zi6-Gm8Cj7-BHe_N-4" value="" style="shape=partialRectangle;overflow=hidden;connectable=0;fillColor=none;top=0;left=0;bottom=0;right=0;" vertex="1" parent="NPN9Zi6-Gm8Cj7-BHe_N-3">
          <mxGeometry width="20" height="50" as="geometry">
            <mxRectangle width="20" height="50" as="alternateBounds" />
          </mxGeometry>
        </mxCell>
        <mxCell id="NPN9Zi6-Gm8Cj7-BHe_N-5" value="" style="shape=partialRectangle;overflow=hidden;connectable=0;fillColor=none;top=0;left=0;bottom=0;right=0;align=left;spacingLeft=6;" vertex="1" parent="NPN9Zi6-Gm8Cj7-BHe_N-3">
          <mxGeometry x="20" width="230" height="50" as="geometry">
            <mxRectangle width="230" height="50" as="alternateBounds" />
          </mxGeometry>
        </mxCell>
        <mxCell id="NPN9Zi6-Gm8Cj7-BHe_N-6" value="Имя = &quot;Олег&quot;&lt;div&gt;Номер телефона = &quot;+7 910 234-56-78&quot;&amp;nbsp;&lt;/div&gt;" style="text;strokeColor=none;align=left;fillColor=none;html=1;verticalAlign=middle;whiteSpace=wrap;rounded=0;" vertex="1" parent="NPN9Zi6-Gm8Cj7-BHe_N-7">
          <mxGeometry x="22.5" y="40" width="227.5" height="30" as="geometry" />
        </mxCell>
        <mxCell id="NPN9Zi6-Gm8Cj7-BHe_N-8" value="" style="group" vertex="1" connectable="0" parent="1">
          <mxGeometry x="470" y="110" width="250" height="100" as="geometry" />
        </mxCell>
        <mxCell id="NPN9Zi6-Gm8Cj7-BHe_N-9" value="З1 : Заказ" style="shape=table;startSize=30;container=1;collapsible=1;childLayout=tableLayout;fixedRows=1;rowLines=0;fontStyle=5;align=center;resizeLast=1;" vertex="1" parent="NPN9Zi6-Gm8Cj7-BHe_N-8">
          <mxGeometry width="250" height="100" as="geometry" />
        </mxCell>
        <mxCell id="NPN9Zi6-Gm8Cj7-BHe_N-10" value="" style="shape=partialRectangle;collapsible=0;dropTarget=0;pointerEvents=0;fillColor=none;points=[[0,0.5],[1,0.5]];portConstraint=eastwest;top=0;left=0;right=0;bottom=0;" vertex="1" parent="NPN9Zi6-Gm8Cj7-BHe_N-9">
          <mxGeometry y="30" width="250" height="70" as="geometry" />
        </mxCell>
        <mxCell id="NPN9Zi6-Gm8Cj7-BHe_N-11" value="" style="shape=partialRectangle;overflow=hidden;connectable=0;fillColor=none;top=0;left=0;bottom=0;right=0;" vertex="1" parent="NPN9Zi6-Gm8Cj7-BHe_N-10">
          <mxGeometry width="20" height="70" as="geometry">
            <mxRectangle width="20" height="70" as="alternateBounds" />
          </mxGeometry>
        </mxCell>
        <mxCell id="NPN9Zi6-Gm8Cj7-BHe_N-12" value="" style="shape=partialRectangle;overflow=hidden;connectable=0;fillColor=none;top=0;left=0;bottom=0;right=0;align=left;spacingLeft=6;" vertex="1" parent="NPN9Zi6-Gm8Cj7-BHe_N-10">
          <mxGeometry x="20" width="230" height="70" as="geometry">
            <mxRectangle width="230" height="70" as="alternateBounds" />
          </mxGeometry>
        </mxCell>
        <mxCell id="NPN9Zi6-Gm8Cj7-BHe_N-13" value="Номер заказа = 001&lt;div&gt;Время оформления = &quot;11:25&quot;&lt;/div&gt;&lt;div&gt;Время выдачи = &quot;12:25&quot;&lt;/div&gt;&lt;div&gt;Стоимость = 65&amp;nbsp;&lt;/div&gt;" style="text;strokeColor=none;align=left;fillColor=none;html=1;verticalAlign=middle;whiteSpace=wrap;rounded=0;" vertex="1" parent="NPN9Zi6-Gm8Cj7-BHe_N-8">
          <mxGeometry x="40" y="50" width="185" height="30" as="geometry" />
        </mxCell>
        <mxCell id="NPN9Zi6-Gm8Cj7-BHe_N-14" value="" style="group" vertex="1" connectable="0" parent="1">
          <mxGeometry x="120" y="120" width="250" height="80" as="geometry" />
        </mxCell>
        <mxCell id="C-vyLk0tnHw3VtMMgP7b-23" value="Спагетти : Товар" style="shape=table;startSize=30;container=1;collapsible=1;childLayout=tableLayout;fixedRows=1;rowLines=0;fontStyle=5;align=center;resizeLast=1;" parent="NPN9Zi6-Gm8Cj7-BHe_N-14" vertex="1">
          <mxGeometry width="250" height="80" as="geometry" />
        </mxCell>
        <mxCell id="C-vyLk0tnHw3VtMMgP7b-27" value="" style="shape=partialRectangle;collapsible=0;dropTarget=0;pointerEvents=0;fillColor=none;points=[[0,0.5],[1,0.5]];portConstraint=eastwest;top=0;left=0;right=0;bottom=0;" parent="C-vyLk0tnHw3VtMMgP7b-23" vertex="1">
          <mxGeometry y="30" width="250" height="50" as="geometry" />
        </mxCell>
        <mxCell id="C-vyLk0tnHw3VtMMgP7b-28" value="" style="shape=partialRectangle;overflow=hidden;connectable=0;fillColor=none;top=0;left=0;bottom=0;right=0;" parent="C-vyLk0tnHw3VtMMgP7b-27" vertex="1">
          <mxGeometry width="20" height="50" as="geometry">
            <mxRectangle width="20" height="50" as="alternateBounds" />
          </mxGeometry>
        </mxCell>
        <mxCell id="C-vyLk0tnHw3VtMMgP7b-29" value="" style="shape=partialRectangle;overflow=hidden;connectable=0;fillColor=none;top=0;left=0;bottom=0;right=0;align=left;spacingLeft=6;" parent="C-vyLk0tnHw3VtMMgP7b-27" vertex="1">
          <mxGeometry x="20" width="230" height="50" as="geometry">
            <mxRectangle width="230" height="50" as="alternateBounds" />
          </mxGeometry>
        </mxCell>
        <mxCell id="NPN9Zi6-Gm8Cj7-BHe_N-1" value="Код = 1902209100&lt;div&gt;Стоимость = 65&lt;/div&gt;" style="text;strokeColor=none;align=left;fillColor=none;html=1;verticalAlign=middle;whiteSpace=wrap;rounded=0;" vertex="1" parent="NPN9Zi6-Gm8Cj7-BHe_N-14">
          <mxGeometry x="70" y="40" width="160" height="30" as="geometry" />
        </mxCell>
        <mxCell id="NPN9Zi6-Gm8Cj7-BHe_N-15" value="" style="group" vertex="1" connectable="0" parent="1">
          <mxGeometry x="470" y="250" width="330" height="100" as="geometry" />
        </mxCell>
        <mxCell id="NPN9Zi6-Gm8Cj7-BHe_N-16" value="П1 : Платеж" style="shape=table;startSize=30;container=1;collapsible=1;childLayout=tableLayout;fixedRows=1;rowLines=0;fontStyle=5;align=center;resizeLast=1;" vertex="1" parent="NPN9Zi6-Gm8Cj7-BHe_N-15">
          <mxGeometry width="290" height="90" as="geometry" />
        </mxCell>
        <mxCell id="NPN9Zi6-Gm8Cj7-BHe_N-17" value="" style="shape=partialRectangle;collapsible=0;dropTarget=0;pointerEvents=0;fillColor=none;points=[[0,0.5],[1,0.5]];portConstraint=eastwest;top=0;left=0;right=0;bottom=0;" vertex="1" parent="NPN9Zi6-Gm8Cj7-BHe_N-16">
          <mxGeometry y="30" width="290" height="60" as="geometry" />
        </mxCell>
        <mxCell id="NPN9Zi6-Gm8Cj7-BHe_N-18" value="" style="shape=partialRectangle;overflow=hidden;connectable=0;fillColor=none;top=0;left=0;bottom=0;right=0;" vertex="1" parent="NPN9Zi6-Gm8Cj7-BHe_N-17">
          <mxGeometry width="20" height="60" as="geometry">
            <mxRectangle width="20" height="60" as="alternateBounds" />
          </mxGeometry>
        </mxCell>
        <mxCell id="NPN9Zi6-Gm8Cj7-BHe_N-19" value="" style="shape=partialRectangle;overflow=hidden;connectable=0;fillColor=none;top=0;left=0;bottom=0;right=0;align=left;spacingLeft=6;" vertex="1" parent="NPN9Zi6-Gm8Cj7-BHe_N-17">
          <mxGeometry x="20" width="270" height="60" as="geometry">
            <mxRectangle width="270" height="60" as="alternateBounds" />
          </mxGeometry>
        </mxCell>
        <mxCell id="NPN9Zi6-Gm8Cj7-BHe_N-20" value="Сумма = 65&lt;div&gt;Идентификатор = 12345678901234567890&amp;nbsp;&lt;/div&gt;&lt;div&gt;Дата = &quot;01.04.24&quot;&lt;/div&gt;" style="text;strokeColor=none;align=left;fillColor=none;html=1;verticalAlign=middle;whiteSpace=wrap;rounded=0;" vertex="1" parent="NPN9Zi6-Gm8Cj7-BHe_N-15">
          <mxGeometry x="32.5" y="40" width="257.5" height="33.33" as="geometry" />
        </mxCell>
        <mxCell id="NPN9Zi6-Gm8Cj7-BHe_N-21" value="" style="edgeStyle=orthogonalEdgeStyle;rounded=0;orthogonalLoop=1;jettySize=auto;html=1;startArrow=none;startFill=0;endArrow=diamondThin;endFill=0;endSize=15;" edge="1" parent="1" source="C-vyLk0tnHw3VtMMgP7b-27" target="NPN9Zi6-Gm8Cj7-BHe_N-10">
          <mxGeometry relative="1" as="geometry">
            <Array as="points">
              <mxPoint x="440" y="175" />
              <mxPoint x="440" y="175" />
            </Array>
          </mxGeometry>
        </mxCell>
        <mxCell id="NPN9Zi6-Gm8Cj7-BHe_N-22" value="" style="edgeStyle=orthogonalEdgeStyle;rounded=0;orthogonalLoop=1;jettySize=auto;html=1;entryX=0.5;entryY=0;entryDx=0;entryDy=0;endArrow=none;endFill=0;" edge="1" parent="1" source="C-vyLk0tnHw3VtMMgP7b-23" target="NPN9Zi6-Gm8Cj7-BHe_N-2">
          <mxGeometry relative="1" as="geometry" />
        </mxCell>
        <mxCell id="NPN9Zi6-Gm8Cj7-BHe_N-23" value="" style="edgeStyle=orthogonalEdgeStyle;rounded=0;orthogonalLoop=1;jettySize=auto;html=1;entryX=0.5;entryY=0;entryDx=0;entryDy=0;endArrow=none;endFill=0;" edge="1" parent="1" source="NPN9Zi6-Gm8Cj7-BHe_N-9" target="NPN9Zi6-Gm8Cj7-BHe_N-16">
          <mxGeometry relative="1" as="geometry" />
        </mxCell>
        <mxCell id="NPN9Zi6-Gm8Cj7-BHe_N-24" value="" style="edgeStyle=orthogonalEdgeStyle;rounded=0;orthogonalLoop=1;jettySize=auto;html=1;entryX=0;entryY=0.5;entryDx=0;entryDy=0;endArrow=diamondThin;endFill=0;endSize=15;" edge="1" parent="1" source="NPN9Zi6-Gm8Cj7-BHe_N-6" target="NPN9Zi6-Gm8Cj7-BHe_N-17">
          <mxGeometry relative="1" as="geometry" />
        </mxCell>
      </root>
    </mxGraphModel>
  </diagram>
</mxfile>
